<svg xmlns="http://www.w3.org/2000/svg" width="256" height="256" viewBox="0 0 100 100"><rect width="100" height="100" rx="20" fill="#34c7c7"></rect><path fill="#fff" d="M43.75 70.25L43.48 63.14Q43.48 46.22 48.88 31.19L48.88 31.19Q45.00 30.74 44.20 30.74L44.20 30.74Q40.59 30.74 38.30 32.13Q36.01 33.53 33.66 35.42L33.66 35.42Q30.25 38.30 26.55 38.30L26.55 38.30Q25.03 38.30 24.21 37.63Q23.41 36.95 23.23 36.23Q23.05 35.51 22.96 34.07Q22.87 32.63 22.69 31.82Q22.51 31.01 22.51 30.20Q22.51 29.39 23.86 28.22L23.86 28.22Q31.60 21.38 46.98 21.38L46.98 21.38Q49.95 21.38 52.92 21.65L52.92 21.65L53.64 20.03Q54.09 20.66 54.81 21.74L54.81 21.74L56.52 21.74Q64.98 21.74 75.06 18.32L75.06 18.32Q75.78 18.14 76.06 18.14L76.06 18.14Q77.50 18.14 77.50 19.67Q77.50 21.20 75.88 22.82L75.88 22.82Q67.87 31.64 54.55 31.46L54.55 31.46Q52.30 40.19 51.48 52.79Q50.67 65.39 50.50 67.10Q50.31 68.81 50.31 70.07Q50.31 71.33 51.13 75.02Q51.94 78.71 51.94 79.25L51.94 79.25Q51.94 81.86 49.23 81.86L49.23 81.86Q45.09 81.86 40.59 72.68L40.59 72.68Q39.70 71.06 39.70 69.57Q39.70 68.09 40.41 68.09Q41.13 68.09 42.17 69.53Q43.20 70.97 43.48 70.97Q43.75 70.97 43.75 70.25L43.75 70.25Z"></path></svg>